<?xml version="1.0" encoding="UTF-8"?><svg id="Revisions" xmlns="http://www.w3.org/2000/svg" xmlns:xlink="http://www.w3.org/1999/xlink" viewBox="0 0 2704.67 1305.25"><defs><style>.cls-1{fill:url(#Disbroad_Gradient-9);}.cls-1,.cls-2,.cls-3,.cls-4,.cls-5,.cls-6,.cls-7,.cls-8,.cls-9,.cls-10,.cls-11,.cls-12,.cls-13{stroke-width:0px;}.cls-2{fill:url(#Disbroad_Gradient-6);}.cls-3{fill:url(#Disbroad_Gradient-5);}.cls-4{fill:url(#Disbroad_Gradient);}.cls-5{fill:url(#Disbroad_Gradient-4);}.cls-6{fill:url(#Disbroad_Gradient-11);}.cls-7{fill:url(#Disbroad_Gradient-3);}.cls-8{fill:url(#Disbroad_Gradient-7);}.cls-9{fill:url(#Disbroad_Gradient-10);}.cls-10{fill:url(#Disbroad_Gradient-2);}.cls-11{fill:url(#Disbroad_Gradient-8);}.cls-12{fill:url(#Disbroad_Gradient-12);}.cls-13{fill:url(#Disbroad_Gradient-13);}</style><linearGradient id="Disbroad_Gradient" x1="508.15" y1="534.72" x2="510.58" y2="1293.15" gradientUnits="userSpaceOnUse"><stop offset="0" stop-color="#00ffd5"/><stop offset="1" stop-color="#a62ab7"/></linearGradient><linearGradient id="Disbroad_Gradient-2" x1="533.58" y1="534.64" x2="536" y2="1293.07" xlink:href="#Disbroad_Gradient"/><linearGradient id="Disbroad_Gradient-3" x1="649.81" y1="534.27" x2="652.24" y2="1292.7" xlink:href="#Disbroad_Gradient"/><linearGradient id="Disbroad_Gradient-4" x1="591.69" y1="534.46" x2="594.12" y2="1292.88" xlink:href="#Disbroad_Gradient"/><linearGradient id="Disbroad_Gradient-5" x1="508.84" y1="534.72" x2="511.26" y2="1293.15" xlink:href="#Disbroad_Gradient"/><linearGradient id="Disbroad_Gradient-6" x1="483.46" y1="534.8" x2="485.89" y2="1293.23" xlink:href="#Disbroad_Gradient"/><linearGradient id="Disbroad_Gradient-7" x1="384.37" y1="549.33" x2="351.98" y2="1257.14" xlink:href="#Disbroad_Gradient"/><linearGradient id="Disbroad_Gradient-8" x1="425.35" y1="534.99" x2="427.77" y2="1293.41" xlink:href="#Disbroad_Gradient"/><linearGradient id="Disbroad_Gradient-9" x1="509.4" y1="534.72" x2="511.83" y2="1293.15" xlink:href="#Disbroad_Gradient"/><linearGradient id="Disbroad_Gradient-10" x1="534.82" y1="534.64" x2="537.25" y2="1293.06" xlink:href="#Disbroad_Gradient"/><linearGradient id="Disbroad_Gradient-11" x1="651.06" y1="534.27" x2="653.48" y2="1292.69" xlink:href="#Disbroad_Gradient"/><linearGradient id="Disbroad_Gradient-12" x1="592.94" y1="534.45" x2="595.37" y2="1292.88" xlink:href="#Disbroad_Gradient"/><linearGradient id="Disbroad_Gradient-13" x1="507.98" y1="534.72" x2="510.4" y2="1293.15" xlink:href="#Disbroad_Gradient"/></defs><g id="Rev2"><g id="RGB"><g id="Bubble3"><path class="cls-4" d="M333.62,1186.48c-.15,0-.3,0-.45,0-1.01-.04-5.31-.48-9.32-4.89-4.99-5.5-7.52-14.81-7.52-27.69v-90.81c0-18.75,15.42-34,34.38-34h318.57c18.96,0,34.38,15.25,34.38,34v60.81c0,18.75-15.42,34-34.38,34h-303.19c-5.1,7.65-20.19,28.59-32.46,28.59ZM333.6,1178.45l-.08.02c.06,0,.11,0,.17,0,6.59,0,19.83-15.88,26.78-26.73l1.19-1.86h307.61c14.5,0,26.29-11.66,26.29-26v-60.81c0-14.34-11.79-26-26.29-26h-318.57c-14.5,0-26.29,11.66-26.29,26v90.81c0,22.41,8.14,24.43,9.01,24.58h.17Z"/><path class="cls-10" d="M547.24,1123.62h-23.75c-4.84,0-8.77-3.89-8.77-8.68v-43.45c0-4.79,3.94-8.68,8.77-8.68h23.75c4.84,0,8.77,3.89,8.77,8.68v43.45c0,4.79-3.94,8.68-8.77,8.68ZM523.49,1071.49v43.45h23.75v-43.45h-23.75Z"/><path class="cls-7" d="M663.47,1123.62h-23.75c-4.84,0-8.77-3.89-8.77-8.68v-43.45c0-4.79,3.94-8.68,8.77-8.68h23.75c4.84,0,8.77,3.89,8.77,8.68v43.45c0,4.79-3.94,8.68-8.77,8.68ZM639.72,1071.49v43.45h23.75v-43.45h-23.75Z"/><path class="cls-5" d="M605.35,1123.62h-23.75c-4.84,0-8.77-3.89-8.77-8.68v-43.45c0-4.79,3.94-8.68,8.77-8.68h23.75c4.84,0,8.77,3.89,8.77,8.68v43.45c0,4.79-3.94,8.68-8.77,8.68ZM581.61,1071.49v43.45h23.75v-43.45h-23.75Z"/></g><g id="Bubble2"><path class="cls-3" d="M686.37,991.74c.15,0,.3,0,.45,0,1.01-.04,5.31-.48,9.32-4.89,4.99-5.5,7.52-14.81,7.52-27.69v-90.81c0-18.75-15.42-34-34.38-34h-318.57c-18.96,0-34.38,15.25-34.38,34v60.81c0,18.75,15.42,34,34.38,34h303.19c5.1,7.65,20.19,28.59,32.46,28.59ZM686.39,983.71l.08.02c-.06,0-.11,0-.17,0-6.59,0-19.83-15.88-26.78-26.73l-1.19-1.86h-307.61c-14.5,0-26.29-11.66-26.29-26v-60.81c0-14.34,11.79-26,26.29-26h318.57c14.5,0,26.29,11.66,26.29,26v90.81c0,22.41-8.14,24.43-9.01,24.58h-.17Z"/><path class="cls-2" d="M472.75,928.88h23.75c4.84,0,8.77-3.89,8.77-8.68v-43.45c0-4.79-3.94-8.68-8.77-8.68h-23.75c-4.84,0-8.77,3.89-8.77,8.68v43.45c0,4.79,3.94,8.68,8.77,8.68ZM496.5,876.75v43.45h-23.75v-43.45h23.75Z"/><path class="cls-8" d="M356.52,928.88h23.75c4.84,0,8.77-3.89,8.77-8.68v-43.45c0-4.79-3.94-8.68-8.77-8.68h-23.75c-4.84,0-8.77,3.89-8.77,8.68v43.45c0,4.79,3.94,8.68,8.77,8.68ZM380.27,876.75v43.45h-23.75v-43.45h23.75Z"/><path class="cls-11" d="M414.64,928.88h23.75c4.84,0,8.77-3.89,8.77-8.68v-43.45c0-4.79-3.94-8.68-8.77-8.68h-23.75c-4.84,0-8.77,3.89-8.77,8.68v43.45c0,4.79,3.94,8.68,8.77,8.68ZM438.38,876.75v43.45h-23.75v-43.45h23.75Z"/></g><g id="Bubble1"><path class="cls-1" d="M333.62,797c-.15,0-.3,0-.45,0-1.01-.04-5.31-.48-9.32-4.89-4.99-5.5-7.52-14.81-7.52-27.69v-90.81c0-18.75,15.42-34,34.38-34h318.57c18.96,0,34.38,15.25,34.38,34v60.81c0,18.75-15.42,34-34.38,34h-303.19c-5.1,7.65-20.19,28.59-32.46,28.59ZM333.6,788.97l-.08.02c.06,0,.11,0,.17,0,6.59,0,19.83-15.88,26.78-26.73l1.19-1.86h307.61c14.5,0,26.29-11.66,26.29-26v-60.81c0-14.34-11.79-26-26.29-26h-318.57c-14.5,0-26.29,11.66-26.29,26v90.81c0,22.41,8.14,24.43,9.01,24.58h.17Z"/><path class="cls-9" d="M547.24,734.14h-23.75c-4.84,0-8.77-3.89-8.77-8.68v-43.45c0-4.79,3.94-8.68,8.77-8.68h23.75c4.84,0,8.77,3.89,8.77,8.68v43.45c0,4.79-3.94,8.68-8.77,8.68ZM523.49,682.01v43.45h23.75v-43.45h-23.75Z"/><path class="cls-6" d="M663.47,734.14h-23.75c-4.84,0-8.77-3.89-8.77-8.68v-43.45c0-4.79,3.94-8.68,8.77-8.68h23.75c4.84,0,8.77,3.89,8.77,8.68v43.45c0,4.79-3.94,8.68-8.77,8.68ZM639.72,682.01v43.45h23.75v-43.45h-23.75Z"/><path class="cls-12" d="M605.35,734.14h-23.75c-4.84,0-8.77-3.89-8.77-8.68v-43.45c0-4.79,3.94-8.68,8.77-8.68h23.75c4.84,0,8.77,3.89,8.77,8.68v43.45c0,4.79-3.94,8.68-8.77,8.68ZM581.61,682.01v43.45h23.75v-43.45h-23.75Z"/></g><path id="Outline" class="cls-13" d="M685.51,1254.72h-352.64c-42.92,0-77.83-34.92-77.83-77.83v-526.52c0-42.92,34.92-77.83,77.83-77.83h352.64c42.92,0,77.83,34.92,77.83,77.83v526.52c0,42.92-34.92,77.83-77.83,77.83ZM332.87,588.44c-34.14,0-61.92,27.78-61.92,61.92v526.52c0,34.14,27.78,61.92,61.92,61.92h352.64c34.14,0,61.92-27.78,61.92-61.92v-526.52c0-34.14-27.78-61.92-61.92-61.92h-352.64Z"/></g></g></svg>